<svg xmlns="http://www.w3.org/2000/svg" viewBox="0 0 900 550" width="900" height="550">
  <!-- Background -->
  <rect width="900" height="550" fill="#0a0d12"/>

  <!-- Page Header -->
  <text x="30" y="45" font-family="system-ui" font-size="22" font-weight="700" fill="#f8fafc">Forensic Findings</text>
  <text x="30" y="65" font-family="system-ui" font-size="13" fill="#64748b">Automated analysis results and investigator review</text>

  <!-- Run Analysis Button -->
  <rect x="720" y="25" width="150" height="36" rx="8" fill="#3b82f6"/>
  <text x="795" y="48" font-family="system-ui" font-size="13" font-weight="500" fill="#fff" text-anchor="middle">▶ Run Analysis</text>

  <!-- Severity Summary Cards -->
  <!-- Critical -->
  <rect x="30" y="85" width="180" height="70" rx="8" fill="#151a23" stroke="#2a3344" stroke-width="1"/>
  <rect x="30" y="85" width="4" height="70" rx="2" fill="#ef4444"/>
  <text x="50" y="120" font-family="system-ui" font-size="24" font-weight="700" fill="#ef4444">0</text>
  <text x="50" y="142" font-family="system-ui" font-size="11" fill="#64748b">Critical</text>

  <!-- High -->
  <rect x="225" y="85" width="180" height="70" rx="8" fill="#151a23" stroke="#2a3344" stroke-width="1"/>
  <rect x="225" y="85" width="4" height="70" rx="2" fill="#f97316"/>
  <text x="245" y="120" font-family="system-ui" font-size="24" font-weight="700" fill="#f97316">3</text>
  <text x="245" y="142" font-family="system-ui" font-size="11" fill="#64748b">High</text>

  <!-- Medium -->
  <rect x="420" y="85" width="180" height="70" rx="8" fill="#151a23" stroke="#2a3344" stroke-width="1"/>
  <rect x="420" y="85" width="4" height="70" rx="2" fill="#eab308"/>
  <text x="440" y="120" font-family="system-ui" font-size="24" font-weight="700" fill="#eab308">12</text>
  <text x="440" y="142" font-family="system-ui" font-size="11" fill="#64748b">Medium</text>

  <!-- Low -->
  <rect x="615" y="85" width="180" height="70" rx="8" fill="#151a23" stroke="#2a3344" stroke-width="1"/>
  <rect x="615" y="85" width="4" height="70" rx="2" fill="#22c55e"/>
  <text x="635" y="120" font-family="system-ui" font-size="24" font-weight="700" fill="#22c55e">25</text>
  <text x="635" y="142" font-family="system-ui" font-size="11" fill="#64748b">Low</text>

  <!-- Type Tags -->
  <rect x="30" y="170" width="55" height="22" rx="11" fill="#252d3d"/>
  <text x="57" y="185" font-family="system-ui" font-size="10" fill="#94a3b8" text-anchor="middle">BEC: 2</text>

  <rect x="92" y="170" width="75" height="22" rx="11" fill="#252d3d"/>
  <text x="130" y="185" font-family="system-ui" font-size="10" fill="#94a3b8" text-anchor="middle">SPOOF: 5</text>

  <rect x="174" y="170" width="75" height="22" rx="11" fill="#252d3d"/>
  <text x="212" y="185" font-family="system-ui" font-size="10" fill="#94a3b8" text-anchor="middle">ANOM: 15</text>

  <rect x="256" y="170" width="85" height="22" rx="11" fill="#252d3d"/>
  <text x="298" y="185" font-family="system-ui" font-size="10" fill="#94a3b8" text-anchor="middle">ROUT: 8</text>

  <!-- Filters -->
  <rect x="30" y="205" width="120" height="32" rx="6" fill="#1c2230" stroke="#2a3344" stroke-width="1"/>
  <text x="45" y="226" font-family="system-ui" font-size="11" fill="#94a3b8">All Severities ▾</text>

  <rect x="160" y="205" width="100" height="32" rx="6" fill="#1c2230" stroke="#2a3344" stroke-width="1"/>
  <text x="175" y="226" font-family="system-ui" font-size="11" fill="#94a3b8">All Types ▾</text>

  <rect x="270" y="205" width="110" height="32" rx="6" fill="#1c2230" stroke="#2a3344" stroke-width="1"/>
  <text x="285" y="226" font-family="system-ui" font-size="11" fill="#94a3b8">All Status ▾</text>

  <text x="400" y="226" font-family="system-ui" font-size="11" fill="#64748b">40 findings</text>

  <!-- Table Header -->
  <rect x="30" y="250" width="840" height="32" fill="#0f1319"/>
  <rect x="30" y="250" width="840" height="1" fill="#2a3344"/>
  <rect x="30" y="281" width="840" height="1" fill="#2a3344"/>

  <text x="45" y="271" font-family="system-ui" font-size="10" font-weight="600" fill="#64748b" letter-spacing="0.5">SEVERITY</text>
  <text x="125" y="271" font-family="system-ui" font-size="10" font-weight="600" fill="#64748b" letter-spacing="0.5">TYPE</text>
  <text x="200" y="271" font-family="system-ui" font-size="10" font-weight="600" fill="#64748b" letter-spacing="0.5">TITLE</text>
  <text x="550" y="271" font-family="system-ui" font-size="10" font-weight="600" fill="#64748b" letter-spacing="0.5">STATUS</text>
  <text x="620" y="271" font-family="system-ui" font-size="10" font-weight="600" fill="#64748b" letter-spacing="0.5">EMAILS</text>
  <text x="700" y="271" font-family="system-ui" font-size="10" font-weight="600" fill="#64748b" letter-spacing="0.5">ACTIONS</text>

  <!-- Row 1: HIGH -->
  <rect x="30" y="282" width="840" height="36" fill="#151a23"/>
  <rect x="45" y="292" width="55" height="18" rx="9" fill="rgba(249,115,22,0.2)"/>
  <text x="72" y="305" font-family="system-ui" font-size="9" font-weight="600" fill="#fb923c" text-anchor="middle">HIGH</text>

  <rect x="125" y="292" width="60" height="18" rx="9" fill="#252d3d"/>
  <text x="155" y="305" font-family="system-ui" font-size="9" fill="#94a3b8" text-anchor="middle">SPOOFING</text>

  <text x="200" y="305" font-family="system-ui" font-size="12" fill="#e2e8f0">Return-Path domain differs from From domain</text>

  <rect x="550" y="292" width="50" height="18" rx="9" fill="rgba(59,130,246,0.15)"/>
  <text x="575" y="305" font-family="system-ui" font-size="9" fill="#74b4fe" text-anchor="middle">OPEN</text>

  <text x="620" y="305" font-family="monospace" font-size="11" fill="#94a3b8">3</text>

  <rect x="700" y="290" width="24" height="22" rx="4" fill="#252d3d"/>
  <text x="712" y="305" font-family="system-ui" font-size="12" fill="#4ade80" text-anchor="middle">✓</text>
  <rect x="728" y="290" width="24" height="22" rx="4" fill="#252d3d"/>
  <text x="740" y="305" font-family="system-ui" font-size="12" fill="#f87171" text-anchor="middle">✗</text>

  <!-- Row 2: MEDIUM -->
  <rect x="30" y="318" width="840" height="36" fill="transparent"/>
  <rect x="45" y="328" width="55" height="18" rx="9" fill="rgba(234,179,8,0.2)"/>
  <text x="72" y="341" font-family="system-ui" font-size="9" font-weight="600" fill="#fde047" text-anchor="middle">MED</text>

  <rect x="125" y="328" width="60" height="18" rx="9" fill="#252d3d"/>
  <text x="155" y="341" font-family="system-ui" font-size="9" fill="#94a3b8" text-anchor="middle">ANOMALY</text>

  <text x="200" y="341" font-family="system-ui" font-size="12" fill="#e2e8f0">Clock skew detected: 450s between hops</text>

  <rect x="550" y="328" width="50" height="18" rx="9" fill="rgba(59,130,246,0.15)"/>
  <text x="575" y="341" font-family="system-ui" font-size="9" fill="#74b4fe" text-anchor="middle">OPEN</text>

  <text x="620" y="341" font-family="monospace" font-size="11" fill="#94a3b8">1</text>

  <rect x="700" y="326" width="24" height="22" rx="4" fill="#252d3d"/>
  <text x="712" y="341" font-family="system-ui" font-size="12" fill="#4ade80" text-anchor="middle">✓</text>
  <rect x="728" y="326" width="24" height="22" rx="4" fill="#252d3d"/>
  <text x="740" y="341" font-family="system-ui" font-size="12" fill="#f87171" text-anchor="middle">✗</text>

  <!-- Row 3: HIGH (BEC) -->
  <rect x="30" y="354" width="840" height="36" fill="#151a23"/>
  <rect x="45" y="364" width="55" height="18" rx="9" fill="rgba(249,115,22,0.2)"/>
  <text x="72" y="377" font-family="system-ui" font-size="9" font-weight="600" fill="#fb923c" text-anchor="middle">HIGH</text>

  <rect x="125" y="364" width="40" height="18" rx="9" fill="#252d3d"/>
  <text x="145" y="377" font-family="system-ui" font-size="9" fill="#94a3b8" text-anchor="middle">BEC</text>

  <text x="200" y="377" font-family="system-ui" font-size="12" fill="#e2e8f0">Brand impersonation: "PayPal" in display name</text>

  <rect x="550" y="364" width="50" height="18" rx="9" fill="rgba(59,130,246,0.15)"/>
  <text x="575" y="377" font-family="system-ui" font-size="9" fill="#74b4fe" text-anchor="middle">OPEN</text>

  <text x="620" y="377" font-family="monospace" font-size="11" fill="#94a3b8">1</text>

  <rect x="700" y="362" width="24" height="22" rx="4" fill="#252d3d"/>
  <text x="712" y="377" font-family="system-ui" font-size="12" fill="#4ade80" text-anchor="middle">✓</text>
  <rect x="728" y="362" width="24" height="22" rx="4" fill="#252d3d"/>
  <text x="740" y="377" font-family="system-ui" font-size="12" fill="#f87171" text-anchor="middle">✗</text>

  <!-- Row 4: LOW -->
  <rect x="30" y="390" width="840" height="36" fill="transparent"/>
  <rect x="45" y="400" width="55" height="18" rx="9" fill="rgba(34,197,94,0.2)"/>
  <text x="72" y="413" font-family="system-ui" font-size="9" font-weight="600" fill="#4ade80" text-anchor="middle">LOW</text>

  <rect x="125" y="400" width="60" height="18" rx="9" fill="#252d3d"/>
  <text x="155" y="413" font-family="system-ui" font-size="9" fill="#94a3b8" text-anchor="middle">ROUTING</text>

  <text x="200" y="413" font-family="system-ui" font-size="12" fill="#e2e8f0">Excessive hops: 12 relay servers detected</text>

  <rect x="550" y="400" width="50" height="18" rx="9" fill="rgba(59,130,246,0.15)"/>
  <text x="575" y="413" font-family="system-ui" font-size="9" fill="#74b4fe" text-anchor="middle">OPEN</text>

  <text x="620" y="413" font-family="monospace" font-size="11" fill="#94a3b8">1</text>

  <rect x="700" y="398" width="24" height="22" rx="4" fill="#252d3d"/>
  <text x="712" y="413" font-family="system-ui" font-size="12" fill="#4ade80" text-anchor="middle">✓</text>
  <rect x="728" y="398" width="24" height="22" rx="4" fill="#252d3d"/>
  <text x="740" y="413" font-family="system-ui" font-size="12" fill="#f87171" text-anchor="middle">✗</text>

  <!-- Row 5: MEDIUM -->
  <rect x="30" y="426" width="840" height="36" fill="#151a23"/>
  <rect x="45" y="436" width="55" height="18" rx="9" fill="rgba(234,179,8,0.2)"/>
  <text x="72" y="449" font-family="system-ui" font-size="9" font-weight="600" fill="#fde047" text-anchor="middle">MED</text>

  <rect x="125" y="436" width="60" height="18" rx="9" fill="#252d3d"/>
  <text x="155" y="449" font-family="system-ui" font-size="9" fill="#94a3b8" text-anchor="middle">SPOOFING</text>

  <text x="200" y="449" font-family="system-ui" font-size="12" fill="#e2e8f0">Reply-To domain differs from From domain</text>

  <rect x="550" y="436" width="50" height="18" rx="9" fill="rgba(234,179,8,0.15)"/>
  <text x="575" y="449" font-family="system-ui" font-size="9" fill="#fde047" text-anchor="middle">REVIEWED</text>

  <text x="620" y="449" font-family="monospace" font-size="11" fill="#94a3b8">2</text>

  <rect x="700" y="434" width="24" height="22" rx="4" fill="#252d3d"/>
  <text x="712" y="449" font-family="system-ui" font-size="12" fill="#4ade80" text-anchor="middle">✓</text>
  <rect x="728" y="434" width="24" height="22" rx="4" fill="#252d3d"/>
  <text x="740" y="449" font-family="system-ui" font-size="12" fill="#f87171" text-anchor="middle">✗</text>

  <!-- Row 6: LOW -->
  <rect x="30" y="462" width="840" height="36" fill="transparent"/>
  <rect x="45" y="472" width="55" height="18" rx="9" fill="rgba(34,197,94,0.2)"/>
  <text x="72" y="485" font-family="system-ui" font-size="9" font-weight="600" fill="#4ade80" text-anchor="middle">LOW</text>

  <rect x="125" y="472" width="60" height="18" rx="9" fill="#252d3d"/>
  <text x="155" y="485" font-family="system-ui" font-size="9" fill="#94a3b8" text-anchor="middle">ATTACH</text>

  <text x="200" y="485" font-family="system-ui" font-size="12" fill="#e2e8f0">Attachment: invoice.pdf (entropy: 6.2, normal)</text>

  <rect x="550" y="472" width="50" height="18" rx="9" fill="rgba(239,68,68,0.15)"/>
  <text x="575" y="485" font-family="system-ui" font-size="9" fill="#f87171" text-anchor="middle">REJECTED</text>

  <text x="620" y="485" font-family="monospace" font-size="11" fill="#94a3b8">1</text>

  <rect x="700" y="470" width="24" height="22" rx="4" fill="#252d3d"/>
  <text x="712" y="485" font-family="system-ui" font-size="12" fill="#4ade80" text-anchor="middle">✓</text>
  <rect x="728" y="470" width="24" height="22" rx="4" fill="#252d3d"/>
  <text x="740" y="485" font-family="system-ui" font-size="12" fill="#f87171" text-anchor="middle">✗</text>

  <!-- Scroll indicator -->
  <rect x="868" y="282" width="4" height="200" rx="2" fill="#2a3344"/>
  <rect x="868" y="282" width="4" height="60" rx="2" fill="#3b82f6"/>
</svg>